<?xml version="1.0" encoding="UTF-8" standalone="no"?>
<svg
   xmlns:dc="http://purl.org/dc/elements/1.1/"
   xmlns:cc="http://creativecommons.org/ns#"
   xmlns:rdf="http://www.w3.org/1999/02/22-rdf-syntax-ns#"
   xmlns:svg="http://www.w3.org/2000/svg"
   xmlns="http://www.w3.org/2000/svg"
   xmlns:sodipodi="http://sodipodi.sourceforge.net/DTD/sodipodi-0.dtd"
   xmlns:inkscape="http://www.inkscape.org/namespaces/inkscape"
   role="img"
   viewBox="0 0 24 24"
   version="1.1"
   id="svg6"
   sodipodi:docname="bootstrap.svg"
   inkscape:version="1.0.2 (394de47547, 2021-03-26)">
  <metadata
     id="metadata12">
    <rdf:RDF>
      <cc:Work
         rdf:about="">
        <dc:format>image/svg+xml</dc:format>
        <dc:type
           rdf:resource="http://purl.org/dc/dcmitype/StillImage" />
      </cc:Work>
    </rdf:RDF>
  </metadata>
  <defs
     id="defs10" />
  <sodipodi:namedview
     pagecolor="#ffffff"
     bordercolor="#666666"
     borderopacity="1"
     objecttolerance="10"
     gridtolerance="10"
     guidetolerance="10"
     inkscape:pageopacity="0"
     inkscape:pageshadow="2"
     inkscape:window-width="1386"
     inkscape:window-height="917"
     id="namedview8"
     showgrid="false"
     inkscape:zoom="34.916667"
     inkscape:cx="12"
     inkscape:cy="12"
     inkscape:window-x="0"
     inkscape:window-y="0"
     inkscape:window-maximized="0"
     inkscape:current-layer="svg6"
     inkscape:document-rotation="0" />
  <title
     id="title2">Bootstrap icon</title>
  <path
     d="M11.77 11.24H9.956V8.202h2.152c1.17 0 1.834.522 1.834 1.466 0 1.008-.773 1.572-2.174 1.572zm.324 1.206H9.957v3.348h2.231c1.459 0 2.232-.585 2.232-1.685s-.795-1.663-2.326-1.663zM24 11.39v1.218c-1.128.108-1.817.944-2.226 2.268-.407 1.319-.463 2.937-.42 4.186.045 1.3-.968 2.5-2.337 2.5H4.985c-1.37 0-2.383-1.2-2.337-2.5.043-1.249-.013-2.867-.42-4.186-.41-1.324-1.1-2.16-2.228-2.268V11.39c1.128-.108 1.819-.944 2.227-2.268.408-1.319.464-2.937.42-4.186-.045-1.3.968-2.5 2.338-2.5h14.032c1.37 0 2.382 1.2 2.337 2.5-.043 1.249.013 2.867.42 4.186.409 1.324 1.098 2.16 2.226 2.268zm-7.927 2.817c0-1.354-.953-2.333-2.368-2.488v-.057c1.04-.169 1.856-1.135 1.856-2.213 0-1.537-1.213-2.538-3.062-2.538h-4.16v10.172h4.181c2.218 0 3.553-1.086 3.553-2.876z"
     id="path4"
     style="fill:#8000cb;fill-opacity:1" />
  <path
     style="fill:#ffffff;stroke-width:0.0286396"
     d="M 8.3484487,12 V 6.9307876 H 10.59025 c 1.36649,0 2.333645,0.011516 2.477025,0.029494 0.366014,0.045894 0.755914,0.1559387 1.055748,0.297971 0.669453,0.3171233 1.082397,0.7672534 1.302279,1.4195512 0.07929,0.2352177 0.09355,0.3226827 0.105238,0.6456322 0.01139,0.3145918 0.004,0.4117854 -0.04664,0.6157517 -0.116764,0.4700813 -0.385867,0.9012073 -0.769233,1.2323803 -0.188011,0.162415 -0.604234,0.379676 -0.838776,0.437826 -0.235994,0.05851 -0.220706,0.113467 0.04393,0.157935 1.097969,0.184491 1.881795,0.916406 2.09191,1.953364 0.06409,0.316307 0.04353,0.913138 -0.04284,1.243506 -0.307924,1.17783 -1.333007,1.921039 -2.862148,2.075126 -0.178247,0.01796 -1.186731,0.02989 -2.527447,0.02989 H 8.3484487 Z m 4.3363083,3.779368 c 0.794762,-0.09105 1.325663,-0.390636 1.574819,-0.888671 0.13651,-0.272866 0.169519,-0.459764 0.153723,-0.870367 -0.0103,-0.267713 -0.028,-0.383374 -0.07908,-0.51675 -0.207187,-0.540994 -0.649492,-0.853972 -1.425135,-1.008436 -0.174384,-0.03473 -0.513771,-0.04695 -1.589277,-0.05724 l -1.3675417,-0.01309 v 1.692128 1.692128 l 1.2386637,-2.29e-4 c 0.681265,-1.43e-4 1.353487,-0.01339 1.493826,-0.02947 z M 12.2625,11.224754 c 0.56845,-0.06339 0.994704,-0.238133 1.286011,-0.527213 0.199405,-0.197881 0.309378,-0.402547 0.369948,-0.688494 C 14.065682,9.3140196 13.786256,8.6826314 13.210898,8.4102473 12.793146,8.212477 12.775866,8.2105676 11.291169,8.1981266 L 9.9522673,8.1869073 V 9.7211386 11.25537 h 1.0178357 c 0.559809,0 1.141388,-0.01378 1.292397,-0.03062 z"
     id="path831" />
</svg>
