<?xml version="1.0" encoding="UTF-8" standalone="no"?>
<svg
   xmlns:dc="http://purl.org/dc/elements/1.1/"
   xmlns:cc="http://creativecommons.org/ns#"
   xmlns:rdf="http://www.w3.org/1999/02/22-rdf-syntax-ns#"
   xmlns:svg="http://www.w3.org/2000/svg"
   xmlns="http://www.w3.org/2000/svg"
   xmlns:sodipodi="http://sodipodi.sourceforge.net/DTD/sodipodi-0.dtd"
   xmlns:inkscape="http://www.inkscape.org/namespaces/inkscape"
   role="img"
   viewBox="0 0 24 24"
   version="1.1"
   id="svg6"
   sodipodi:docname="eclipseide.svg"
   inkscape:version="1.0.2 (394de47547, 2021-03-26)">
  <metadata
     id="metadata12">
    <rdf:RDF>
      <cc:Work
         rdf:about="">
        <dc:format>image/svg+xml</dc:format>
        <dc:type
           rdf:resource="http://purl.org/dc/dcmitype/StillImage" />
      </cc:Work>
    </rdf:RDF>
  </metadata>
  <defs
     id="defs10" />
  <sodipodi:namedview
     pagecolor="#ffffff"
     bordercolor="#666666"
     borderopacity="1"
     objecttolerance="10"
     gridtolerance="10"
     guidetolerance="10"
     inkscape:pageopacity="0"
     inkscape:pageshadow="2"
     inkscape:window-width="1577"
     inkscape:window-height="981"
     id="namedview8"
     showgrid="false"
     inkscape:zoom="34.916667"
     inkscape:cx="12"
     inkscape:cy="8.5346062"
     inkscape:window-x="139"
     inkscape:window-y="11"
     inkscape:window-maximized="0"
     inkscape:current-layer="svg6" />
  <title
     id="title2">Eclipse IDE icon</title>
  <path
     d="M11.109.024a15.58 15.58 0 00-.737.023C6.728.361 3.469 2.517 1.579 5.86A12.53 12.53 0 00.021 11.11c-.04.517-.02 1.745.035 2.208.306 2.682 1.353 5.06 3.07 6.965 1.962 2.173 4.586 3.467 7.437 3.663.42.032 1.043.04 1.02.012a2.404 2.404 0 00-.338-.074c-1.674-.33-3.388-1.13-4.777-2.232a12.344 12.344 0 01-2.45-2.636A12.387 12.387 0 011.884 12.5a12.413 12.413 0 01.56-4.274c.785-2.522 2.37-4.726 4.475-6.228A11.073 11.073 0 0111.156.122l.443-.098zm1.474.51C10.646.65 8.807 1.299 7.301 2.4 5.426 3.77 3.995 5.644 3.22 7.746c-.145.397-.282.82-.282.879 0 .012 3.828.024 10.31.024 8.463 0 10.315-.008 10.315-.036 0-.047-.153-.525-.283-.878-.153-.42-.576-1.31-.82-1.722-.4-.683-.91-1.373-1.474-1.992-1.65-1.82-3.593-2.934-5.82-3.334-.785-.141-1.8-.2-2.585-.153zM23.83 9.97c-.02 0-4.792 0-10.609.004l-10.573.008-.011.059c-.036.16-.134 1.081-.134 1.242 0 .028 1.785.032 10.746.032H24v-.075c0-.102-.07-.791-.106-1.054-.02-.16-.04-.216-.063-.216zm-10.573 2.635c-9.37-.004-10.73 0-10.742.035-.02.04.024.557.075.973.02.157.035.298.035.314 0 .027 2.137.035 10.624.035h10.624l.024-.188c.043-.326.102-.97.094-1.067l-.008-.094zm.003 2.718c-8.882 0-10.321.004-10.321.035 0 .02.054.208.12.42a11.122 11.122 0 002.072 3.741c.282.342.945 1.036 1.228 1.287 1.568 1.4 3.247 2.216 5.18 2.53.605.094.886.113 1.75.11.91 0 1.297-.032 2.023-.177 2.11-.416 3.914-1.451 5.53-3.17 1.267-1.348 2.106-2.76 2.628-4.41l.117-.366z"
     id="path4"
     style="fill:#000080" />
  <path
     style="fill:#ff6600;stroke-width:0.0286396"
     d="m 7.2529833,8.6278671 c -3.6577332,-0.00642 -4.2887828,-0.013441 -4.2887828,-0.047709 0,-0.06763 0.3110835,-0.9501686 0.4487999,-1.2732375 C 4.009613,5.9073288 4.7905275,4.7576973 5.8978273,3.6488578 6.4687509,3.0771399 6.7129469,2.8635658 7.2601432,2.4573748 8.6589563,1.4190174 10.332939,0.77769581 12.139712,0.58795782 c 0.480988,-0.0505109 1.497855,-0.057491 2.008259,-0.0137853 2.580449,0.22096269 4.693338,1.24989158 6.581899,3.20523638 1.00939,1.0450837 1.792955,2.2287508 2.389496,3.6096126 0.192097,0.444663 0.428475,1.1659177 0.392849,1.1986897 -0.03096,0.028479 -9.53709,0.051956 -16.2592317,0.040156 z"
     id="path837" />
  <path
     style="fill:#ff6600;stroke-width:0.0286396"
     d="M 10.724716,23.940609 C 7.2441528,23.740631 4.1370765,21.939414 2.1075362,18.945107 1.0420614,17.373146 0.36682433,15.548944 0.09453336,13.506832 0.00882348,12.86403 0.00139423,11.234623 0.0811992,10.582339 0.33910754,8.4743321 1.0732311,6.5114071 2.2082706,4.8949008 2.9810895,3.7942637 4.04554,2.7230586 5.0892384,1.9956517 6.5923037,0.9480883 8.3247305,0.29018655 10.109785,0.08906234 10.251551,0.07308938 10.612411,0.05328845 10.911695,0.04506027 11.513477,0.02851553 11.522105,0.01913804 10.767205,0.20209206 9.4393799,0.5238978 8.1239556,1.1238079 7.0013012,1.9195643 5.9018916,2.6988442 4.8469816,3.7588577 4.0729429,4.8620893 2.3551704,7.3104175 1.5789605,10.463822 1.9484561,13.49296 c 0.3876095,3.177637 1.9175243,6.017231 4.3146011,8.008102 1.3369913,1.110427 2.9981573,1.941631 4.6199978,2.311725 0.658831,0.150342 0.666273,0.152964 0.429594,0.151405 -0.110262,-7.28e-4 -0.374832,-0.01134 -0.587933,-0.02358 z"
     id="path839" />
  <path
     style="fill:#000080;stroke-width:0.0286396"
     d="M 3.7984197,8.5990577 2.985861,8.5909816 3.0019753,8.51041 C 3.0293971,8.373301 3.3304626,7.5479084 3.4818639,7.194761 3.7879745,6.4807506 4.2572469,5.6663863 4.7314533,5.026253 5.4689983,4.0306376 6.491766,3.0221555 7.4606205,2.3352055 8.766608,1.4092171 10.384929,0.80369539 12.057279,0.61528867 c 0.512425,-0.0577297 1.849262,-0.0568558 2.362769,0.001545 2.360687,0.26847755 4.245864,1.17769413 6.024911,2.90580163 1.076766,1.0459341 1.946454,2.2898294 2.568742,3.6740148 0.250132,0.5563787 0.512566,1.3319241 0.461406,1.3635431 -0.07539,0.04659 -15.7787131,0.077607 -19.6766873,0.038864 z"
     id="path841" />
  <path
     style="fill:#ff9500;stroke-width:0.0286396;fill-opacity:1"
     d="m 10.668258,23.923901 c -0.05513,-0.0053 -0.248449,-0.02355 -0.429595,-0.04054 C 8.2167359,23.693718 6.191327,22.866587 4.5412823,21.556676 3.1753512,20.472314 1.9915668,18.979625 1.2453666,17.400705 0.60230772,16.040026 0.16353337,14.403393 0.06842214,13.010688 0.02590348,12.388092 0.05226782,10.872932 0.11316801,10.439141 0.4076947,8.3412318 1.1225639,6.4773652 2.245264,4.8801626 3.006889,3.7966413 4.0567695,2.741536 5.097852,2.0133784 6.7824057,0.83516191 8.833389,0.12972375 10.740304,0.07265025 L 11.25537,0.05723445 10.768496,0.18421611 C 8.80896,0.69528355 7.2903866,1.518777 5.7955506,2.8809504 4.2910608,4.2519208 3.1558717,6.0048524 2.5052108,7.9618138 1.8984513,9.7867355 1.7090824,11.707923 1.9490857,13.603819 c 0.1710929,1.35154 0.6167207,2.815517 1.2281131,4.034599 0.9300088,1.854385 2.3567905,3.469536 4.0707812,4.608223 1.0817902,0.718686 2.2597039,1.235908 3.564191,1.565037 l 0.500478,0.126274 -0.272076,-0.0022 c -0.149642,-0.0012 -0.317184,-0.0065 -0.372315,-0.01185 z"
     id="path843" />
  <path
     style="fill:#000055;fill-opacity:1;stroke-width:0.0286396"
     d="M 12.214797,23.409741 C 10.104837,23.171249 8.4485705,22.483762 6.8167065,21.169091 6.2353718,20.700752 5.4863439,19.938369 4.9494674,19.268559 4.4480004,18.642926 3.8746453,17.705615 3.5371699,16.95976 3.2815415,16.394795 2.9287088,15.404381 2.9691459,15.365297 c 0.00516,-0.005 4.6393267,-0.01857 10.2981571,-0.0302 7.261888,-0.01492 10.288783,-0.01218 10.288783,0.0093 0,0.06113 -0.26472,0.828723 -0.406565,1.178886 -0.999663,2.467812 -3.091684,4.752532 -5.391964,5.888625 -0.807326,0.398733 -1.478961,0.633107 -2.335123,0.814864 -0.785459,0.166748 -0.910542,0.17814 -2.047732,0.186496 -0.582817,0.0043 -1.104774,0.0027 -1.159905,-0.0035 z"
     id="path845" />
  <path
     style="fill:#000055;fill-opacity:1;stroke-width:0.0286396"
     d="M 3.0396978,8.4444945 C 3.2457812,7.7505368 3.6439438,6.8270452 4.0407892,6.1225807 4.771322,4.8257676 6.0040242,3.4433404 7.2738819,2.4967935 8.6142315,1.4977022 10.229993,0.86077641 11.978147,0.64239339 c 0.515473,-0.064394 1.993603,-0.0632791 2.52782,0.001907 2.305873,0.28136491 4.130106,1.16929171 5.902947,2.87319871 0.626204,0.601855 1.113557,1.1878101 1.612171,1.9383486 0.369968,0.5568922 0.502184,0.784088 0.78334,1.346062 0.343122,0.6858321 0.710798,1.6871505 0.636393,1.7331354 -0.06229,0.038496 -3.963779,0.056841 -12.088389,0.056841 H 2.9959274 Z"
     id="path847" />
  <path
     style="fill:#000055;fill-opacity:1;stroke-width:0.0286396"
     d="M 4.3925626,11.291174 2.5130488,11.2836 2.5254822,11.147767 C 2.5499989,10.879925 2.62353,10.20795 2.639847,10.102625 L 2.6564854,9.9952267 H 13.247554 c 10.061731,0 10.591843,0.0025 10.606575,0.050119 0.01802,0.05825 0.09083,0.687206 0.119349,1.031026 l 0.0196,0.236277 -8.860499,-0.0069 c -4.873276,-0.0038 -9.7062818,-0.01036 -10.7400144,-0.01453 z"
     id="path849" />
  <path
     style="fill:#000055;fill-opacity:1;stroke-width:0.0286396"
     d="M 3.0930788,13.919962 2.6348449,13.904535 2.5847265,13.446301 C 2.5571614,13.194272 2.5378296,12.91074 2.541767,12.816229 l 0.00716,-0.171838 10.695427,-0.0072 c 6.034785,-0.0041 10.706281,0.0037 10.720335,0.01771 0.02403,0.02403 2.66e-4,0.367377 -0.06916,0.999035 l -0.03226,0.293556 -10.155978,-0.0061 c -5.5857874,-0.0033 -10.3621826,-0.013 -10.6142112,-0.02148 z"
     id="path851" />
</svg>
