<?xml version="1.0" encoding="UTF-8" standalone="no"?>
<svg
   xmlns:dc="http://purl.org/dc/elements/1.1/"
   xmlns:cc="http://creativecommons.org/ns#"
   xmlns:rdf="http://www.w3.org/1999/02/22-rdf-syntax-ns#"
   xmlns:svg="http://www.w3.org/2000/svg"
   xmlns="http://www.w3.org/2000/svg"
   xmlns:sodipodi="http://sodipodi.sourceforge.net/DTD/sodipodi-0.dtd"
   xmlns:inkscape="http://www.inkscape.org/namespaces/inkscape"
   role="img"
   viewBox="0 0 24 24"
   version="1.1"
   id="svg6"
   sodipodi:docname="html5.svg"
   inkscape:version="1.0.2 (394de47547, 2021-03-26)">
  <metadata
     id="metadata12">
    <rdf:RDF>
      <cc:Work
         rdf:about="">
        <dc:format>image/svg+xml</dc:format>
        <dc:type
           rdf:resource="http://purl.org/dc/dcmitype/StillImage" />
      </cc:Work>
    </rdf:RDF>
  </metadata>
  <defs
     id="defs10" />
  <sodipodi:namedview
     pagecolor="#ffffff"
     bordercolor="#666666"
     borderopacity="1"
     objecttolerance="10"
     gridtolerance="10"
     guidetolerance="10"
     inkscape:pageopacity="0"
     inkscape:pageshadow="2"
     inkscape:window-width="1491"
     inkscape:window-height="947"
     id="namedview8"
     showgrid="false"
     inkscape:zoom="34.916667"
     inkscape:cx="12"
     inkscape:cy="12"
     inkscape:window-x="0"
     inkscape:window-y="0"
     inkscape:window-maximized="0"
     inkscape:current-layer="svg6"
     inkscape:document-rotation="0" />
  <title
     id="title2">HTML5 icon</title>
  <path
     d="M1.5 0h21l-1.91 21.563L11.977 24l-8.564-2.438L1.5 0zm7.031 9.75l-.232-2.718 10.059.003.23-2.622L5.412 4.41l.698 8.01h9.126l-.326 3.426-2.91.804-2.955-.81-.188-2.11H6.248l.33 4.171L12 19.351l5.379-1.443.744-8.157H8.531z"
     id="path4"
     style="fill:#ff6600" />
  <path
     style="fill:#ffffff;stroke-width:0.0286396"
     d="M 9.2794943,18.610527 C 7.81472,18.217264 6.6101378,17.889374 6.6026451,17.881881 6.5951525,17.874389 6.5220545,17.015084 6.4402052,15.972315 6.3583558,14.929547 6.2840187,14.002267 6.2750115,13.911694 l -0.016377,-0.164677 h 1.287798 1.2877982 l 0.013448,0.06444 c 0.0074,0.03544 0.051948,0.507194 0.099004,1.048339 0.047056,0.541145 0.08958,0.987092 0.094496,0.990994 0.00492,0.0039 0.6726633,0.188971 1.4838803,0.411265 L 12,16.666225 l 1.461834,-0.403578 1.461833,-0.403578 0.151487,-1.607339 c 0.08332,-0.884036 0.158628,-1.662112 0.167357,-1.729057 l 0.01587,-0.121718 H 10.68647 c -4.3350506,0 -4.5719193,-0.0026 -4.572063,-0.05012 C 6.1143236,12.32327 5.9597955,10.529588 5.7710112,8.3648755 5.5822269,6.2001632 5.4334059,4.4233961 5.4402978,4.4165042 c 0.00689,-0.00689 2.9652348,-0.0029 6.5740952,0.00888 l 6.561565,0.02141 -0.01654,0.1465317 c -0.0091,0.080592 -0.05454,0.5911617 -0.100977,1.1345985 -0.04644,0.5434367 -0.09219,1.0557279 -0.101665,1.1384248 l -0.01722,0.150358 h -5.024192 c -4.8304524,0 -5.0241925,0.002 -5.0241925,0.05187 0,0.06541 0.1935606,2.3442688 0.2163505,2.5471753 l 0.016888,0.150358 h 4.795414 4.795413 l -0.01533,0.1073986 c -0.0084,0.059069 -0.176918,1.8856399 -0.374419,4.0590449 -0.1975,2.173405 -0.362598,3.955152 -0.366883,3.959438 -0.01674,0.01674 -5.343566,1.439566 -5.378608,1.436654 -0.0205,-0.0017 -1.235729,-0.324856 -2.7005037,-0.718118 z"
     id="path831" />
</svg>
