<?xml version="1.0" encoding="UTF-8" standalone="no"?>
<svg
   xmlns:dc="http://purl.org/dc/elements/1.1/"
   xmlns:cc="http://creativecommons.org/ns#"
   xmlns:rdf="http://www.w3.org/1999/02/22-rdf-syntax-ns#"
   xmlns:svg="http://www.w3.org/2000/svg"
   xmlns="http://www.w3.org/2000/svg"
   xmlns:sodipodi="http://sodipodi.sourceforge.net/DTD/sodipodi-0.dtd"
   xmlns:inkscape="http://www.inkscape.org/namespaces/inkscape"
   role="img"
   viewBox="0 0 24 24"
   version="1.1"
   id="svg6"
   sodipodi:docname="javascript.svg"
   inkscape:version="1.0.2 (394de47547, 2021-03-26)">
  <metadata
     id="metadata12">
    <rdf:RDF>
      <cc:Work
         rdf:about="">
        <dc:format>image/svg+xml</dc:format>
        <dc:type
           rdf:resource="http://purl.org/dc/dcmitype/StillImage" />
      </cc:Work>
    </rdf:RDF>
  </metadata>
  <defs
     id="defs10" />
  <sodipodi:namedview
     pagecolor="#ffffff"
     bordercolor="#666666"
     borderopacity="1"
     objecttolerance="10"
     gridtolerance="10"
     guidetolerance="10"
     inkscape:pageopacity="0"
     inkscape:pageshadow="2"
     inkscape:window-width="1446"
     inkscape:window-height="908"
     id="namedview8"
     showgrid="false"
     inkscape:zoom="34.916667"
     inkscape:cx="12"
     inkscape:cy="9.7088306"
     inkscape:window-x="0"
     inkscape:window-y="0"
     inkscape:window-maximized="0"
     inkscape:current-layer="svg6"
     inkscape:document-rotation="0" />
  <title
     id="title2">JavaScript icon</title>
  <path
     d="M0 0h24v24H0V0zm22.034 18.276c-.175-1.095-.888-2.015-3.003-2.873-.736-.345-1.554-.585-1.797-1.14-.091-.33-.105-.51-.046-.705.15-.646.915-.84 1.515-.66.39.12.75.42.976.9 1.034-.676 1.034-.676 1.755-1.125-.27-.42-.404-.601-.586-.78-.63-.705-1.469-1.065-2.834-1.034l-.705.089c-.676.165-1.32.525-1.71 1.005-1.14 1.291-.811 3.541.569 4.471 1.365 1.02 3.361 1.244 3.616 2.205.24 1.17-.87 1.545-1.966 1.41-.811-.18-1.26-.586-1.755-1.336l-1.83 1.051c.21.48.45.689.81 1.109 1.74 1.756 6.09 1.666 6.871-1.004.029-.09.24-.705.074-1.65l.046.067zm-8.983-7.245h-2.248c0 1.938-.009 3.864-.009 5.805 0 1.232.063 2.363-.138 2.711-.33.689-1.18.601-1.566.48-.396-.196-.597-.466-.83-.855-.063-.105-.11-.196-.127-.196l-1.825 1.125c.305.63.75 1.172 1.324 1.517.855.51 2.004.675 3.207.405.783-.226 1.458-.691 1.811-1.411.51-.93.402-2.07.397-3.346.012-2.054 0-4.109 0-6.179l.004-.056z"
     id="path4"
     style="fill:#ffc941;fill-opacity:1" />
  <path
     style="fill:#000000;stroke-width:0.0286396"
     d="M 9.0930788,22.09727 C 8.2149967,21.970505 7.4804601,21.61 6.972605,21.056557 6.7223972,20.78389 6.2989489,20.134671 6.3457025,20.095408 c 0.00676,-0.0057 0.3860398,-0.239735 0.8428417,-0.520128 0.4568019,-0.280392 0.856507,-0.526711 0.8882335,-0.547377 0.053889,-0.0351 0.068021,-0.02037 0.2147972,0.223897 0.191729,0.319078 0.4977401,0.637423 0.715585,0.744425 0.097306,0.0478 0.2489353,0.08952 0.3966719,0.109158 0.6038262,0.08026 1.1221262,-0.16582 1.2890732,-0.612026 0.112569,-0.300867 0.118387,-0.524345 0.11847,-4.550636 l 8.1e-5,-3.887828 h 1.118038 1.118038 l -0.0107,4.131264 c -0.01154,4.455118 -0.0044,4.241897 -0.161377,4.820794 -0.07985,0.294477 -0.30269,0.750136 -0.482902,0.987442 -0.406322,0.53505 -1.070092,0.9248 -1.810216,1.062918 -0.394863,0.07369 -1.1207299,0.09316 -1.4892602,0.03996 z"
     id="path831" />
  <path
     style="fill:#000000;stroke-width:0.0286396"
     d="m 17.54745,21.980727 c -0.832477,-0.127021 -1.582759,-0.41538 -2.121443,-0.815345 -0.358673,-0.266309 -0.877837,-0.855393 -1.09037,-1.237217 l -0.09047,-0.162527 0.194837,-0.112745 c 0.978568,-0.566264 1.616351,-0.927599 1.621797,-0.918825 0.0036,0.0058 0.100063,0.135215 0.21435,0.287569 0.368517,0.491264 0.735103,0.771332 1.236972,0.945038 0.262013,0.09069 0.288497,0.09417 0.715991,0.09427 0.374824,8.6e-5 0.478723,-0.0099 0.66757,-0.06421 0.443101,-0.127423 0.678693,-0.298556 0.827647,-0.601201 0.0882,-0.179198 0.09417,-0.210079 0.09247,-0.478511 -0.002,-0.322468 -0.0481,-0.456461 -0.230001,-0.668969 -0.214461,-0.25055 -0.559097,-0.440505 -1.646811,-0.907683 -1.092949,-0.469426 -1.65646,-0.795388 -2.092205,-1.210232 -0.469055,-0.446556 -0.785823,-1.072601 -0.884629,-1.74834 -0.04927,-0.336962 -0.02189,-0.988501 0.05337,-1.269877 0.317735,-1.187975 1.294898,-2.017121 2.57507,-2.185008 0.876695,-0.114974 1.683793,-0.01524 2.323437,0.287108 0.3415,0.161422 0.59611,0.350693 0.896513,0.666449 0.211415,0.22222 0.618805,0.766597 0.592279,0.791435 -0.0055,0.0052 -0.203352,0.13098 -0.439629,0.279582 -0.236276,0.148602 -0.61919,0.394117 -0.85092,0.545589 L 19.691949,13.77248 19.58532,13.596948 c -0.215543,-0.354821 -0.548491,-0.61171 -0.938911,-0.724424 -0.128544,-0.03711 -0.240502,-0.04588 -0.46067,-0.03609 -0.248088,0.01103 -0.318244,0.02575 -0.477114,0.100097 -0.228364,0.106864 -0.379707,0.253737 -0.478468,0.464334 -0.06275,0.133802 -0.07494,0.199849 -0.07446,0.403432 8.99e-4,0.380979 0.0638,0.545158 0.295935,0.772432 0.229132,0.224333 0.506658,0.373627 1.493466,0.803404 0.787143,0.342818 1.0157,0.454685 1.378705,0.674801 1.047555,0.63521 1.607794,1.387917 1.678616,2.255301 0.03428,0.419887 0.01997,1.041695 -0.02914,1.266249 -0.05913,0.270314 -0.218201,0.687532 -0.338436,0.887631 -0.436705,0.726784 -1.223685,1.230054 -2.288788,1.463669 -0.279502,0.0613 -0.420392,0.07386 -0.930788,0.08291 -0.424128,0.0075 -0.679965,-0.0013 -0.867824,-0.02997 z"
     id="path833" />
</svg>
