<?xml version="1.0" encoding="UTF-8" standalone="no"?>
<svg
   xmlns:dc="http://purl.org/dc/elements/1.1/"
   xmlns:cc="http://creativecommons.org/ns#"
   xmlns:rdf="http://www.w3.org/1999/02/22-rdf-syntax-ns#"
   xmlns:svg="http://www.w3.org/2000/svg"
   xmlns="http://www.w3.org/2000/svg"
   xmlns:sodipodi="http://sodipodi.sourceforge.net/DTD/sodipodi-0.dtd"
   xmlns:inkscape="http://www.inkscape.org/namespaces/inkscape"
   role="img"
   viewBox="0 0 24 24"
   version="1.1"
   id="svg6"
   sodipodi:docname="java.svg"
   inkscape:version="1.0.2 (394de47547, 2021-03-26)">
  <metadata
     id="metadata12">
    <rdf:RDF>
      <cc:Work
         rdf:about="">
        <dc:format>image/svg+xml</dc:format>
        <dc:type
           rdf:resource="http://purl.org/dc/dcmitype/StillImage" />
      </cc:Work>
    </rdf:RDF>
  </metadata>
  <defs
     id="defs10" />
  <sodipodi:namedview
     pagecolor="#ffffff"
     bordercolor="#666666"
     borderopacity="1"
     objecttolerance="10"
     gridtolerance="10"
     guidetolerance="10"
     inkscape:pageopacity="0"
     inkscape:pageshadow="2"
     inkscape:window-width="1920"
     inkscape:window-height="1006"
     id="namedview8"
     showgrid="false"
     inkscape:zoom="34.916667"
     inkscape:cx="12"
     inkscape:cy="14.23389"
     inkscape:window-x="0"
     inkscape:window-y="0"
     inkscape:window-maximized="1"
     inkscape:current-layer="svg6"
     inkscape:document-rotation="0" />
  <title
     id="title2">Java icon</title>
  <path
     d="M8.851 18.56s-.917.534.653.714c1.902.218 2.874.187 4.969-.211 0 0 .552.346 1.321.646-4.699 2.013-10.633-.118-6.943-1.149M8.276 15.933s-1.028.761.542.924c2.032.209 3.636.227 6.413-.308 0 0 .384.389.987.602-5.679 1.661-12.007.13-7.942-1.218M13.116 11.475c1.158 1.333-.304 2.533-.304 2.533s2.939-1.518 1.589-3.418c-1.261-1.772-2.228-2.652 3.007-5.688 0-.001-8.216 2.051-4.292 6.573M19.33 20.504s.679.559-.747.991c-2.712.822-11.288 1.069-13.669.033-.856-.373.75-.89 1.254-.998.527-.114.828-.093.828-.093-.953-.671-6.156 1.317-2.643 1.887 9.58 1.553 17.462-.7 14.977-1.82M9.292 13.21s-4.362 1.036-1.544 1.412c1.189.159 3.561.123 5.77-.062 1.806-.152 3.618-.477 3.618-.477s-.637.272-1.098.587c-4.429 1.165-12.986.623-10.522-.568 2.082-1.006 3.776-.892 3.776-.892M17.116 17.584c4.503-2.34 2.421-4.589.968-4.285-.355.074-.515.138-.515.138s.132-.207.385-.297c2.875-1.011 5.086 2.981-.928 4.562 0-.001.07-.062.09-.118M14.401 0s2.494 2.494-2.365 6.33c-3.896 3.077-.888 4.832-.001 6.836-2.274-2.053-3.943-3.858-2.824-5.539 1.644-2.469 6.197-3.665 5.19-7.627M9.734 23.924c4.322.277 10.959-.153 11.116-2.198 0 0-.302.775-3.572 1.391-3.688.694-8.239.613-10.937.168 0-.001.553.457 3.393.639"
     id="path4" />
  <path
     style="fill:#ff0000;fill-opacity:1;stroke-width:0.0286396"
     d="M 11.353781,12.507926 C 9.9050813,11.122202 9.2819008,10.314766 8.9879288,9.4425652 8.8637212,9.0740472 8.8423704,8.6242001 8.9333479,8.292584 9.0083822,8.0190816 9.1689618,7.7036211 9.3714228,7.4319809 9.5814746,7.1501562 10.147671,6.5755486 10.553699,6.2321413 10.913387,5.9279275 10.985825,5.8694452 11.799523,5.2263359 12.440327,4.7198732 12.834538,4.3787651 13.167655,4.0424987 13.943875,3.2589408 14.362495,2.5238742 14.50819,1.6886176 14.56447,1.3659566 14.54924,0.58930588 14.4807,0.28666974 14.45754,0.18443356 14.4434,0.09597861 14.44928,0.09010319 c 0.0059,-0.0058754 0.07074,0.08215188 0.144137,0.19561624 0.642534,0.99325677 0.559229,2.27548887 -0.230641,3.54999697 -0.505327,0.8153791 -1.213655,1.5688152 -2.305493,2.4523142 -0.543813,0.4400458 -1.193376,1.094313 -1.425942,1.4362703 -0.368896,0.5424126 -0.518477,0.9525159 -0.54103,1.4833363 -0.01795,0.422577 0.0424,0.7323652 0.227966,1.1702008 0.158485,0.373929 0.346653,0.686961 0.863205,1.436004 0.374883,0.543614 0.761243,1.15215 0.761243,1.198998 0,0.05001 -0.08483,-0.02271 -0.58894,-0.504914 z"
     id="path877" />
  <path
     style="fill:#ff0000;fill-opacity:1;stroke-width:0.0286396"
     d="m 13.149324,13.668258 c 0.264509,-0.344272 0.425855,-0.764742 0.425855,-1.109785 0,-0.386171 -0.143852,-0.72288 -0.489426,-1.145585 -0.322564,-0.394558 -0.553408,-0.744992 -0.718714,-1.091045 -0.443211,-0.9278214 -0.375647,-1.8319166 0.197617,-2.6443741 0.187454,-0.2656692 0.632852,-0.7139251 0.955136,-0.9612653 0.774869,-0.5946817 1.878274,-1.1466288 3.129222,-1.5653051 0.280824,-0.093988 0.522179,-0.1669271 0.536344,-0.1620864 0.01417,0.00484 -0.157351,0.1183478 -0.381148,0.252238 -1.523164,0.9112582 -2.639082,1.7893101 -3.056539,2.4050138 -0.251347,0.3707102 -0.344612,0.6423587 -0.34372,1.001139 0.0011,0.4394199 0.156937,0.7870101 0.687863,1.5341811 0.548752,0.77226 0.637303,0.969144 0.637611,1.417661 1.52e-4,0.221184 -0.01439,0.314934 -0.07773,0.501194 -0.147094,0.432566 -0.480688,0.881871 -0.936316,1.26109 -0.235936,0.19637 -0.660048,0.500246 -0.69818,0.500246 -0.009,0 0.05043,-0.08699 0.13212,-0.193317 z"
     id="path879" />
  <path
     style="fill:#0000ff;fill-opacity:1;stroke-width:0.0286396"
     d="m 9.8735084,15.301478 c 0.051193,-0.0064 0.1349646,-0.0064 0.1861576,0 0.05119,0.0064 0.0093,0.01155 -0.093079,0.01155 -0.1023866,0 -0.1442721,-0.0052 -0.093079,-0.01155 z"
     id="path881" />
  <path
     style="fill:#0000ff;fill-opacity:1;stroke-width:0.0286396"
     d="M 8.2768496,15.261429 C 6.936534,15.184696 5.7765343,14.992689 5.3552332,14.777833 5.214808,14.706219 5.097852,14.581905 5.097852,14.504259 c 0,-0.156895 0.2849569,-0.3449 0.9259698,-0.610924 0.8928874,-0.370553 2.1752401,-0.66606 2.8642471,-0.66004 l 0.2050099,0.0018 -0.4416868,0.127324 c -1.6226573,0.467762 -2.1960235,0.836338 -1.6847856,1.083028 0.1698224,0.08195 0.5719918,0.168623 1.0381669,0.223751 0.5018463,0.05935 3.4901527,0.04917 4.4248207,-0.01508 1.435978,-0.0987 2.158747,-0.174709 3.479714,-0.365956 0.44105,-0.06385 0.85346,-0.122368 0.916468,-0.130032 0.09866,-0.012 0.06688,0.01132 -0.229117,0.168108 -0.189022,0.100123 -0.395227,0.216331 -0.458234,0.258242 -0.08068,0.05367 -0.245825,0.105915 -0.558473,0.17669 -1.104451,0.250018 -2.488765,0.420897 -4.081145,0.503776 -0.635285,0.03307 -2.6208699,0.0309 -3.2219574,-0.0035 z"
     id="path883" />
  <path
     style="fill:#0000ff;fill-opacity:1;stroke-width:0.0286396"
     d="m 17.097852,17.641804 c 0,-0.01344 0.09988,-0.0791 0.221957,-0.145922 1.774089,-0.971106 2.677674,-2.050592 2.528277,-3.020456 -0.08702,-0.564892 -0.530633,-1.019756 -1.146415,-1.17548 -0.226249,-0.05722 -0.578245,-0.04056 -0.866349,0.04098 -0.106324,0.0301 -0.193317,0.04575 -0.193317,0.03478 0,-0.01097 0.05477,-0.05892 0.121718,-0.106568 0.3396,-0.2417 1.119914,-0.341316 1.642197,-0.209645 0.686529,0.173079 1.2168,0.657054 1.369712,1.250125 0.05734,0.222384 0.05801,0.521571 0.0017,0.741639 -0.249767,0.975603 -1.283583,1.815436 -2.934819,2.384135 -0.442441,0.152381 -0.74463,0.236146 -0.74463,0.206407 z"
     id="path885" />
  <path
     style="fill:#0000ff;fill-opacity:1;stroke-width:0.0286396"
     d="M 10.4821,17.851818 C 8.491241,17.77839 7.0052506,17.3398 7.0052506,16.825627 c 0,-0.217225 0.2826926,-0.470003 0.7557947,-0.675816 0.1340504,-0.05832 0.2754479,-0.115464 0.3142167,-0.126997 0.069571,-0.02069 0.069848,-0.02008 0.021282,0.04732 -0.027064,0.03756 -0.06961,0.0968 -0.094547,0.131637 -0.024937,0.03484 -0.052284,0.115118 -0.060771,0.178393 -0.041177,0.306997 0.2786042,0.439544 1.2807317,0.530854 1.9179383,0.174755 3.4767003,0.103363 5.4776493,-0.250881 l 0.537315,-0.09513 0.06412,0.0684 c 0.09389,0.100156 0.408615,0.303283 0.646718,0.417391 l 0.207617,0.0995 -0.151672,0.04361 c -1.614657,0.464292 -3.778993,0.722174 -5.521601,0.657902 z"
     id="path887" />
  <path
     style="fill:#0000ff;fill-opacity:1;stroke-width:0.0286396"
     d="m 10.777336,20.502747 c -0.192035,-0.013 -0.533563,-0.05035 -0.75895,-0.08301 -1.2269096,-0.177765 -2.1177707,-0.552943 -2.2720213,-0.956843 -0.054449,-0.142572 -0.041449,-0.2141 0.064631,-0.355629 0.1187342,-0.158411 0.5094834,-0.373669 0.8668082,-0.477513 l 0.071599,-0.02081 -0.075541,0.08216 c -0.041548,0.04519 -0.083832,0.109677 -0.093964,0.143309 -0.050508,0.167643 0.1662697,0.320649 0.5614057,0.396251 0.4229686,0.08093 1.3609034,0.162951 2.0424674,0.178616 0.937896,0.02156 1.627597,-0.0375 2.745077,-0.235042 l 0.539827,-0.09543 0.147524,0.08743 c 0.168361,0.09978 0.659532,0.343145 0.935114,0.463331 l 0.186157,0.08119 -0.128878,0.05605 c -0.07088,0.03083 -0.277088,0.107389 -0.458234,0.170138 -1.330178,0.460777 -2.908164,0.664943 -4.373022,0.565799 z"
     id="path889" />
  <path
     style="fill:#0000ff;fill-opacity:1;stroke-width:0.0286396"
     d="M 9.2792363,22.806863 C 7.6293007,22.719746 6.6927145,22.636941 5.4128878,22.46503 4.2386999,22.307309 3.7520438,22.202978 3.4570015,22.045722 3.1929366,21.904977 3.1151797,21.743477 3.2168342,21.546899 3.5232768,20.954305 5.6323095,20.197524 6.601619,20.332343 c 0.318521,0.0443 0.3486518,0.07561 0.096418,0.100179 -0.3479424,0.03389 -0.6486335,0.100126 -1.0417878,0.229471 -0.6621775,0.217852 -0.9879915,0.423416 -0.9879915,0.623346 0,0.156735 0.1324928,0.241099 0.6157517,0.392078 0.7390987,0.230908 1.8791101,0.392441 3.4940335,0.495083 0.755162,0.048 3.7026741,0.04811 4.5966591,1.81e-4 3.141514,-0.168438 5.303182,-0.522396 5.880767,-0.962935 0.218692,-0.166802 0.303198,-0.375498 0.217151,-0.536277 -0.05012,-0.09365 -0.0133,-0.09009 0.120367,0.01165 0.225556,0.171674 0.233886,0.367113 0.02473,0.580226 -0.723983,0.737685 -3.561265,1.359668 -6.984686,1.531168 -0.511863,0.02564 -2.9232354,0.03308 -3.3537968,0.01035 z"
     id="path891" />
  <path
     style="fill:#007dff;fill-opacity:1;stroke-width:0.0286396"
     d="M 11.28401,23.967349 C 9.2550994,23.929708 7.7525175,23.761994 6.8305489,23.470268 6.5283448,23.374645 6.332686,23.287056 6.5041106,23.324133 c 0.2570203,0.05559 1.469507,0.184038 2.3455314,0.248479 0.6608818,0.04862 3.30234,0.06693 4.115482,0.02853 3.695237,-0.174491 6.787593,-0.841553 7.72359,-1.66608 0.123122,-0.108459 0.137318,-0.114774 0.119068,-0.05297 -0.118957,0.402861 -0.485003,0.746783 -1.108689,1.041679 -1.163184,0.549985 -3.153245,0.903045 -5.737279,1.01786 -0.937809,0.04167 -1.517749,0.04724 -2.677804,0.02572 z"
     id="path893" />
  <path
     style="fill:#007dff;fill-opacity:1;stroke-width:0.0286396"
     d="M 8.7494033,22.766804 C 6.3054699,22.606088 4.1920067,22.331934 3.6308568,22.102836 3.165135,21.912699 3.0747425,21.708526 3.3324895,21.428904 c 0.4387703,-0.47601 1.8569449,-1.020856 2.8269355,-1.086077 0.2612549,-0.01757 0.6281645,0.0098 0.6281645,0.04678 0,0.01225 -0.07649,0.03027 -0.1699784,0.04005 -0.2763027,0.02888 -0.5951536,0.102247 -0.9612865,0.221193 -0.4292247,0.139442 -0.7189242,0.277342 -0.8706962,0.414459 -0.097249,0.08786 -0.1173706,0.12425 -0.1173706,0.212271 0,0.171946 0.113469,0.250503 0.5727923,0.396557 0.6815586,0.21672 1.6030625,0.361086 3.0644392,0.480085 0.7533133,0.06134 3.4176037,0.0875 4.5966587,0.04513 2.321965,-0.08344 4.566344,-0.348435 5.631791,-0.664955 0.759607,-0.225662 1.0683,-0.50229 0.955514,-0.856263 l -0.02271,-0.07127 0.09718,0.07467 c 0.249768,0.191931 0.248492,0.35382 -0.0047,0.601609 -0.560011,0.547971 -2.408314,1.056422 -4.824095,1.327065 -1.369859,0.153466 -1.629159,0.165699 -3.680191,0.173615 -1.0632462,0.0041 -2.1007164,-0.0036 -2.3054897,-0.01702 z"
     id="path895" />
  <path
     style="fill:#007dff;fill-opacity:1;stroke-width:0.0286396"
     d="M 10.46778,20.459571 C 9.0666441,20.308939 8.0077657,19.930483 7.7892955,19.502246 c -0.031129,-0.06102 -0.05655,-0.140454 -0.056491,-0.176523 1.6e-4,-0.09806 0.097322,-0.238753 0.2352221,-0.340608 0.1417615,-0.104707 0.5660607,-0.312084 0.6385332,-0.312084 0.045702,0 0.045911,0.005 0.00294,0.07059 -0.2830636,0.43201 0.7092704,0.659719 2.8749882,0.659719 1.051557,0 1.169469,-0.0098 2.26253,-0.187472 l 0.70167,-0.114073 0.62125,0.310426 0.62125,0.310426 -0.277574,0.102309 c -0.953149,0.351316 -1.926748,0.563039 -2.992739,0.650814 -0.497388,0.04095 -1.498701,0.03265 -1.953094,-0.0162 z"
     id="path897" />
  <path
     style="fill:#007dff;fill-opacity:1;stroke-width:0.0286396"
     d="M 9.98306,17.813713 C 8.3323572,17.685622 7.1346854,17.306262 7.0270487,16.877404 c -0.044778,-0.178412 0.1984102,-0.443273 0.5839808,-0.636026 0.2211359,-0.11055 0.4653428,-0.208011 0.4653428,-0.185715 0,0.0092 -0.027491,0.05525 -0.061092,0.102436 -0.07749,0.108825 -0.1031694,0.317049 -0.051099,0.414344 0.086336,0.161319 0.4165623,0.259671 1.1288975,0.33622 0.7477672,0.08036 1.5465402,0.111702 2.3914082,0.09384 1.08482,-0.02293 1.918408,-0.107184 3.158337,-0.319226 l 0.566451,-0.09687 0.201737,0.151764 c 0.110956,0.08347 0.309459,0.208196 0.441118,0.277168 0.136058,0.07128 0.224783,0.133494 0.205559,0.144148 -0.0186,0.01031 -0.246472,0.07216 -0.506376,0.137437 -0.836929,0.210213 -1.834904,0.374481 -2.892602,0.476123 -0.545626,0.05243 -2.199953,0.07757 -2.675651,0.04066 z"
     id="path899" />
  <path
     style="fill:#007dff;fill-opacity:1;stroke-width:0.0286396"
     d="M 8.24821,15.246418 C 8.1930788,15.241286 7.9675418,15.223165 7.7470167,15.20615 6.9034195,15.141062 6.0237618,14.995801 5.5815061,14.848552 5.3241266,14.762858 5.1264916,14.611858 5.1264916,14.500906 c 0,-0.377491 2.2708308,-1.176365 3.4940335,-1.229195 l 0.300716,-0.01299 -0.4671383,0.144093 c -0.8578221,0.264603 -1.4223356,0.507743 -1.5933864,0.686281 -0.084431,0.08813 -0.1040014,0.201961 -0.046609,0.271115 0.051928,0.06257 0.2534437,0.147031 0.4746757,0.198952 0.5417502,0.127144 0.7007611,0.138492 2.1479714,0.153296 2.5402555,0.02599 4.0292515,-0.06824 6.4563655,-0.408574 0.495153,-0.06943 0.903495,-0.123023 0.907424,-0.119094 0.0039,0.0039 -0.171599,0.106609 -0.390063,0.228176 -0.246008,0.136893 -0.476957,0.242733 -0.606709,0.278044 -0.54748,0.148993 -1.643659,0.327958 -2.629548,0.429307 -1.161828,0.119435 -1.765306,0.144809 -3.3300337,0.140014 -0.8226579,-0.0025 -1.5408487,-0.0088 -1.59598,-0.01391 z"
     id="path901" />
  <path
     style="fill:#007dff;fill-opacity:1;stroke-width:0.0286396"
     d="m 17.183771,17.602067 c 0,-0.0062 0.1321,-0.08596 0.293556,-0.177208 1.330103,-0.751735 2.169214,-1.606247 2.356292,-2.399539 0.175214,-0.742981 -0.232168,-1.435705 -0.994892,-1.691743 -0.257914,-0.08658 -0.578186,-0.09729 -0.895996,-0.02998 -0.26726,0.05661 -0.274915,0.05481 -0.144305,-0.03394 0.2654,-0.180344 0.881102,-0.289994 1.337292,-0.238158 0.672096,0.07637 1.239241,0.456213 1.516447,1.015638 0.122305,0.246822 0.12606,0.262623 0.135874,0.571805 0.009,0.28373 0.0019,0.342567 -0.06605,0.54641 -0.322991,0.969083 -1.40321,1.77733 -3.114569,2.330398 -0.347936,0.112444 -0.423654,0.131445 -0.423654,0.106316 z"
     id="path903" />
  <path
     style="fill:#59a6e6;fill-opacity:1;stroke-width:0.0286396"
     d="M 10.324582,20.430187 C 9.2291749,20.299675 8.2712621,19.987593 7.935512,19.651843 7.7933293,19.50966 7.7293266,19.369529 7.7569695,19.260933 c 0.037566,-0.147581 0.4179759,-0.417076 0.786516,-0.557194 0.073764,-0.02804 0.1101718,0.0027 0.0484,0.04089 -0.057516,0.03555 -0.031965,0.230328 0.038954,0.296953 0.2419154,0.227268 1.0215816,0.340545 2.5242915,0.366752 1.119925,0.01953 1.448066,-0.001 2.391411,-0.149998 0.999283,-0.157779 0.833663,-0.175955 1.531157,0.168037 l 0.600372,0.296093 -0.528773,0.175407 c -0.854824,0.283567 -1.535081,0.433246 -2.433308,0.535408 -0.502101,0.05711 -1.901315,0.0553 -2.391408,-0.0031 z"
     id="path845" />
  <path
     style="fill:#59a6e6;fill-opacity:1;stroke-width:0.0286396"
     d="M 9.8806683,17.796724 C 9.825537,17.790096 9.6128879,17.764553 9.4081146,17.739962 8.3164473,17.608864 7.482142,17.354357 7.1729787,17.058126 7.0670028,16.956583 7.0453461,16.917882 7.0453461,16.830045 c 0,-0.191721 0.3323127,-0.482732 0.7576911,-0.66352 0.103447,-0.04397 0.1953291,-0.07269 0.2041825,-0.06384 0.00885,0.0089 -0.00419,0.05532 -0.028974,0.103255 -0.024789,0.04794 -0.045071,0.146784 -0.045071,0.219661 0,0.264705 0.2312105,0.375057 0.9868493,0.471002 0.7561634,0.09601 1.419503,0.124334 2.492864,0.106434 1.25958,-0.02101 1.639724,-0.05602 3.051325,-0.281085 l 0.731516,-0.11663 0.27087,0.183465 c 0.148979,0.100906 0.339131,0.220544 0.422561,0.265861 0.09892,0.05373 0.138773,0.08932 0.114558,0.102297 -0.160288,0.08591 -1.46148,0.357854 -2.242382,0.46865 -1.013231,0.143759 -1.28806,0.162306 -2.563245,0.172986 -0.669451,0.0056 -1.2622911,0.0048 -1.3174223,-0.0019 z"
     id="path847" />
  <path
     style="fill:#59a6e6;fill-opacity:1;stroke-width:0.0286396"
     d="M 7.6897375,15.191739 C 6.4734347,15.079365 5.5580024,14.88505 5.2921814,14.682819 5.0382118,14.489605 5.1256716,14.363634 5.7136039,14.075833 c 0.7922613,-0.387823 2.2697673,-0.789038 2.896277,-0.786481 0.124198,5.07e-4 0.075036,0.02218 -0.4475897,0.197312 -0.9120061,0.305615 -1.3103597,0.509308 -1.3741738,0.702667 -0.022644,0.06861 -0.023698,0.115824 -0.00343,0.153696 0.055872,0.104399 0.4872332,0.246435 0.9941594,0.327353 0.320143,0.0511 4.0941512,0.05011 4.8082642,-0.0013 1.173474,-0.08442 2.888578,-0.276023 4.052506,-0.452722 0.09014,-0.01369 0.08005,-0.0031 -0.100239,0.105501 -0.347943,0.209516 -0.662053,0.342107 -0.98141,0.414269 -0.705224,0.159353 -1.826998,0.321777 -2.985177,0.432229 -0.693679,0.06615 -4.2363759,0.08309 -4.8830545,0.02335 z"
     id="path849" />
  <path
     style="fill:#59a6e6;fill-opacity:1;stroke-width:0.0286396"
     d="m 17.26969,17.574946 c 0,-0.0054 0.18179,-0.118147 0.403979,-0.250596 0.981358,-0.585001 1.702516,-1.257655 2.011016,-1.875756 0.447092,-0.895782 0.08714,-1.807498 -0.838161,-2.122944 -0.209949,-0.07157 -0.617751,-0.0884 -0.89021,-0.03673 -0.08346,0.01583 -0.158063,0.02246 -0.165788,0.01473 -0.02474,-0.02474 0.288675,-0.153998 0.49587,-0.204512 0.283682,-0.06916 0.882424,-0.07048 1.131265,-0.0025 0.559168,0.152781 0.984717,0.49351 1.236908,0.990366 0.09399,0.185175 0.09483,0.190424 0.09483,0.589289 0,0.351638 -0.0082,0.42265 -0.06474,0.562437 -0.374427,0.925267 -1.374809,1.665524 -2.982597,2.207047 -0.426589,0.143681 -0.432375,0.145409 -0.432375,0.129154 z"
     id="path851" />
  <path
     style="fill:#59a6e6;fill-opacity:1;stroke-width:0.0286396"
     d="M 8.6778043,22.74944 C 8.6226731,22.744 8.3069213,22.71955 7.9761337,22.695106 6.2048237,22.564211 4.4710032,22.337035 3.8144474,22.149818 3.6024021,22.089353 3.3331824,21.946629 3.2630912,21.857523 c -0.1090069,-0.13858 -0.05577,-0.295368 0.1683487,-0.495804 0.3766875,-0.336882 1.2104802,-0.70284 2.053047,-0.901097 0.2517614,-0.05924 0.4099475,-0.07655 0.7875895,-0.08619 0.5277368,-0.01347 0.5349059,0.0069 0.035242,0.100024 -0.6129251,0.114255 -1.3104151,0.380447 -1.5316616,0.584547 -0.090655,0.08363 -0.1073986,0.117449 -0.1073986,0.216932 0,0.188222 0.089303,0.25334 0.5484033,0.399884 0.7009833,0.223753 1.7063641,0.381815 3.1604272,0.496872 0.6397386,0.05062 4.6622103,0.05096 5.4272073,4.61e-4 2.269181,-0.149802 3.935262,-0.376545 4.825776,-0.656758 0.281921,-0.08871 0.580156,-0.236298 0.712756,-0.352723 0.116232,-0.102053 0.204544,-0.307039 0.177943,-0.41303 -0.02536,-0.101044 0.01822,-0.09099 0.12304,0.02839 0.109255,0.124434 0.113282,0.221881 0.01514,0.36631 -0.231888,0.341253 -1.013131,0.693145 -2.174301,0.97936 -1.217302,0.300051 -3.007617,0.547466 -4.449258,0.614872 -0.538257,0.02517 -4.1202817,0.03327 -4.3575873,0.0099 z"
     id="path853" />
  <path
     style="fill:#59a6e6;fill-opacity:1;stroke-width:0.0286396"
     d="M 10.798591,23.940081 C 9.5429173,23.90176 8.3344719,23.788926 7.5894988,23.640444 7.222003,23.567198 6.6049582,23.399815 6.6257586,23.379014 c 0.00641,-0.0064 0.3064195,0.02069 0.6666929,0.06021 1.5560505,0.1707 1.5889946,0.172177 3.8626795,0.173194 2.433601,0.0011 3.057031,-0.03275 4.754177,-0.258031 2.223838,-0.295196 3.824702,-0.739612 4.618138,-1.282042 0.129952,-0.08884 0.236277,-0.148468 0.236277,-0.132503 0,0.06672 -0.121568,0.258916 -0.25861,0.408862 -1.025763,1.122348 -4.799909,1.741117 -9.706522,1.591378 z"
     id="path855" />
</svg>
