<?xml version="1.0" encoding="UTF-8" standalone="no"?>
<svg
   xmlns:dc="http://purl.org/dc/elements/1.1/"
   xmlns:cc="http://creativecommons.org/ns#"
   xmlns:rdf="http://www.w3.org/1999/02/22-rdf-syntax-ns#"
   xmlns:svg="http://www.w3.org/2000/svg"
   xmlns="http://www.w3.org/2000/svg"
   xmlns:sodipodi="http://sodipodi.sourceforge.net/DTD/sodipodi-0.dtd"
   xmlns:inkscape="http://www.inkscape.org/namespaces/inkscape"
   role="img"
   viewBox="0 0 24 24"
   version="1.1"
   id="svg6"
   sodipodi:docname="linkedin.svg"
   inkscape:version="1.0.2 (394de47547, 2021-03-26)">
  <metadata
     id="metadata12">
    <rdf:RDF>
      <cc:Work
         rdf:about="">
        <dc:format>image/svg+xml</dc:format>
        <dc:type
           rdf:resource="http://purl.org/dc/dcmitype/StillImage" />
      </cc:Work>
    </rdf:RDF>
  </metadata>
  <defs
     id="defs10" />
  <sodipodi:namedview
     pagecolor="#ffffff"
     bordercolor="#666666"
     borderopacity="1"
     objecttolerance="10"
     gridtolerance="10"
     guidetolerance="10"
     inkscape:pageopacity="0"
     inkscape:pageshadow="2"
     inkscape:window-width="1094"
     inkscape:window-height="763"
     id="namedview8"
     showgrid="false"
     inkscape:zoom="34.916667"
     inkscape:cx="12"
     inkscape:cy="9.7088306"
     inkscape:window-x="798"
     inkscape:window-y="243"
     inkscape:window-maximized="0"
     inkscape:current-layer="svg6"
     inkscape:document-rotation="0" />
  <title
     id="title2">LinkedIn icon</title>
  <path
     d="M20.447 20.452h-3.554v-5.569c0-1.328-.027-3.037-1.852-3.037-1.853 0-2.136 1.445-2.136 2.939v5.667H9.351V9h3.414v1.561h.046c.477-.9 1.637-1.85 3.37-1.85 3.601 0 4.267 2.37 4.267 5.455v6.286zM5.337 7.433c-1.144 0-2.063-.926-2.063-2.065 0-1.138.92-2.063 2.063-2.063 1.14 0 2.064.925 2.064 2.063 0 1.139-.925 2.065-2.064 2.065zm1.782 13.019H3.555V9h3.564v11.452zM22.225 0H1.771C.792 0 0 .774 0 1.729v20.542C0 23.227.792 24 1.771 24h20.451C23.2 24 24 23.227 24 22.271V1.729C24 .774 23.2 0 22.222 0h.003z"
     id="path4"
     style="fill:#007fff;fill-opacity:1" />
  <path
     style="fill:#ffffff;stroke-width:0.0286396"
     d="M 4.9116946,7.373061 C 4.4887254,7.2808374 4.0138321,6.9892657 3.7575426,6.6644429 3.5689562,6.4254275 3.484183,6.2723912 3.3894802,6.0000001 c -0.072414,-0.208281 -0.079658,-0.26558 -0.079658,-0.6300716 0,-0.3640781 0.00731,-0.422027 0.07944,-0.6300716 0.10987,-0.3168802 0.2802296,-0.592708 0.5047384,-0.8172167 0.6324065,-0.6324065 1.5843012,-0.778247 2.388464,-0.3659384 0.3069428,0.1573751 0.7007006,0.5444583 0.8539552,0.8394797 0.1845815,0.3553271 0.2380674,0.5797214 0.2355128,0.9880668 -0.00189,0.3021236 -0.013547,0.392263 -0.074694,0.5775652 C 7.181437,6.3127421 7.0356089,6.545604 6.7618357,6.8167581 6.493548,7.0824788 6.2632465,7.2223149 5.9140812,7.3315034 5.6490284,7.4143888 5.1887563,7.4334711 4.9116946,7.373061 Z"
     id="path831" />
  <path
     style="fill:#ffffff;stroke-width:0.0286396"
     d="M 3.5799523,14.735084 V 9.0214797 h 1.7613365 1.7613365 v 5.7136043 5.713603 H 5.3412888 3.5799523 Z"
     id="path833" />
  <path
     style="fill:#ffffff;stroke-width:0.0286396"
     d="M 9.3651552,14.735084 V 9.0214797 h 1.6897378 1.689737 v 0.7732697 c 0,0.6034806 0.0079,0.7732696 0.03615,0.7732696 0.01988,0 0.106011,-0.106324 0.191401,-0.236277 0.195355,-0.297305 0.633314,-0.7358517 0.932358,-0.9336075 0.66857,-0.4421224 1.289984,-0.6299224 2.166377,-0.65471 2.36011,-0.066752 3.714257,0.9347491 4.158719,3.0757105 0.182357,0.878411 0.189899,1.078952 0.190172,5.05676 l 2.45e-4,3.572792 h -1.760125 -1.760125 l -0.01054,-3.372315 c -0.0095,-3.028183 -0.0155,-3.397156 -0.05909,-3.615751 -0.180243,-0.903785 -0.552786,-1.380792 -1.221568,-1.564103 -0.275022,-0.07538 -0.937607,-0.06916 -1.235614,0.01161 -0.902054,0.244478 -1.342317,0.909414 -1.454589,2.196884 -0.01846,0.211715 -0.03008,1.495577 -0.03026,3.343675 l -2.96e-4,3 H 11.126492 9.3651552 Z"
     id="path835" />
</svg>
