<?xml version="1.0" encoding="UTF-8" standalone="no"?>
<svg
   xmlns:dc="http://purl.org/dc/elements/1.1/"
   xmlns:cc="http://creativecommons.org/ns#"
   xmlns:rdf="http://www.w3.org/1999/02/22-rdf-syntax-ns#"
   xmlns:svg="http://www.w3.org/2000/svg"
   xmlns="http://www.w3.org/2000/svg"
   xmlns:sodipodi="http://sodipodi.sourceforge.net/DTD/sodipodi-0.dtd"
   xmlns:inkscape="http://www.inkscape.org/namespaces/inkscape"
   role="img"
   viewBox="0 0 24 24"
   version="1.1"
   id="svg6"
   sodipodi:docname="linuxmint.svg"
   inkscape:version="1.0.2 (394de47547, 2021-03-26)">
  <metadata
     id="metadata12">
    <rdf:RDF>
      <cc:Work
         rdf:about="">
        <dc:format>image/svg+xml</dc:format>
        <dc:type
           rdf:resource="http://purl.org/dc/dcmitype/StillImage" />
      </cc:Work>
    </rdf:RDF>
  </metadata>
  <defs
     id="defs10" />
  <sodipodi:namedview
     pagecolor="#ffffff"
     bordercolor="#666666"
     borderopacity="1"
     objecttolerance="10"
     gridtolerance="10"
     guidetolerance="10"
     inkscape:pageopacity="0"
     inkscape:pageshadow="2"
     inkscape:window-width="1920"
     inkscape:window-height="1006"
     id="namedview8"
     showgrid="false"
     inkscape:zoom="34.916667"
     inkscape:cx="12"
     inkscape:cy="11.97136"
     inkscape:window-x="0"
     inkscape:window-y="0"
     inkscape:window-maximized="1"
     inkscape:current-layer="svg6"
     inkscape:document-rotation="0" />
  <title
     id="title2">Linux Mint icon</title>
  <path
     d="M0 1.693v4.193h1.828c1.276 0 1.502.865 1.502 2.058l.01 7.412c0 3.84 3.44 6.951 7.68 6.951h10.464c1.342 0 2.516-.83 2.516-2.108V8.706c0-3.84-3.44-6.95-7.683-6.95h-4.405v-.013L0 1.693zm5.723 2.566h2.102V14.82c0 1.413.984 2.51 2.139 2.51l7.17.03c1.496 0 2.661-1.01 2.661-2.206l-.012-5.607a1.2 1.2 0 0 0-.386-.91 1.224 1.224 0 0 0-.917-.384c-.374 0-.65.12-.918.384a1.2 1.2 0 0 0-.386.91v4.798h-2.223V9.548c0-.364-.124-.648-.389-.91a1.208 1.208 0 0 0-.917-.384c-.366 0-.647.12-.914.384-.265.262-.39.546-.39.91v4.798H10.12V9.548c0-.95.36-1.792 1.042-2.466a3.445 3.445 0 0 1 2.485-1.022c.937 0 1.752.345 2.413.97a3.448 3.448 0 0 1 2.42-.97c.954 0 1.803.348 2.485 1.022a3.385 3.385 0 0 1 1.041 2.466l.009 5.991c-.105 1.004-.539 1.894-1.28 2.637h-.002a4.367 4.367 0 0 1-3.174 1.314H9.574v-.038c-.976-.103-1.846-.519-2.57-1.217-.845-.825-1.281-1.846-1.281-3.01V4.26z"
     id="path4"
     style="fill:#35cb36;fill-opacity:1" />
  <path
     style="fill:#ffffff;stroke-width:0.0286396"
     d="m 9.5369929,19.445243 c -0.039379,-0.0134 -0.1875895,-0.0451 -0.3293556,-0.07045 C 7.7317723,19.110899 6.3862174,17.927718 5.9342488,16.49642 5.729666,15.848545 5.7440075,16.317619 5.7348239,9.973747 l -0.00826,-5.7064438 h 1.0455304 1.0455304 l 0.00848,5.5346061 0.00848,5.5346057 0.065263,0.229117 c 0.2785857,0.97802 0.9869785,1.653228 1.8466898,1.760179 0.1131565,0.01408 1.9133775,0.0278 4.0004895,0.0305 3.681526,0.0048 3.80244,0.0032 4.052506,-0.05162 0.895932,-0.196478 1.628296,-0.779879 1.892404,-1.507488 0.129018,-0.35544 0.132532,-0.47415 0.107385,-3.62691 L 19.775656,9.2045576 19.668184,8.9871575 C 19.53615,8.7200707 19.290009,8.4798542 19.017279,8.3519198 c -0.341504,-0.1601957 -0.86708,-0.1357234 -1.188065,0.05532 -0.30983,0.1844039 -0.583171,0.5645295 -0.645292,0.8973854 -0.01786,0.09568 -0.02879,1.0773058 -0.02879,2.5847258 v 2.430458 H 16.066826 14.97852 l -5.67e-4,-2.384248 c -3.38e-4,-1.413962 -0.01207,-2.463807 -0.02883,-2.5797453 -0.05956,-0.4119929 -0.343136,-0.7905417 -0.73861,-0.9859956 -0.214511,-0.106017 -0.221183,-0.10729 -0.562247,-0.10729 -0.329837,0 -0.353866,0.00412 -0.541219,0.092856 -0.135936,0.064382 -0.254923,0.1522058 -0.388018,0.2863962 -0.239511,0.2414812 -0.340344,0.4457919 -0.376904,0.7636926 -0.01466,0.127466 -0.02675,1.2853361 -0.02687,2.5730451 l -2.17e-4,2.341289 H 11.22673 10.138425 v -2.518214 c 0,-1.635805 0.01076,-2.5955928 0.03071,-2.7390369 0.176021,-1.2655512 1.139884,-2.4075511 2.375014,-2.8139552 0.693236,-0.2281008 1.505635,-0.2282997 2.186122,-5.35e-4 0.432877,0.1448874 0.760267,0.3278142 1.129302,0.6309881 l 0.208025,0.1708997 0.14997,-0.1349145 c 0.402109,-0.361742 0.985683,-0.6500044 1.567631,-0.7743479 0.30068,-0.064246 1.001254,-0.072242 1.317422,-0.015038 0.723844,0.1309659 1.373912,0.4866055 1.922513,1.0517698 0.522698,0.5384798 0.84889,1.2143682 0.93834,1.9442927 0.02125,0.1734375 0.03161,1.2821642 0.03167,3.3892952 8.6e-5,3.009005 -0.0021,3.142434 -0.05666,3.409966 -0.184829,0.90697 -0.60033,1.644209 -1.310823,2.325842 -0.607324,0.582655 -1.326472,0.961995 -2.180816,1.150349 -0.272581,0.0601 -0.312833,0.06068 -4.556633,0.06653 -2.354893,0.0032 -4.3138427,-0.0051 -4.3532221,-0.01846 z"
     id="path831" />
</svg>
