<?xml version="1.0" encoding="UTF-8" standalone="no"?>
<svg
   xmlns:dc="http://purl.org/dc/elements/1.1/"
   xmlns:cc="http://creativecommons.org/ns#"
   xmlns:rdf="http://www.w3.org/1999/02/22-rdf-syntax-ns#"
   xmlns:svg="http://www.w3.org/2000/svg"
   xmlns="http://www.w3.org/2000/svg"
   xmlns:sodipodi="http://sodipodi.sourceforge.net/DTD/sodipodi-0.dtd"
   xmlns:inkscape="http://www.inkscape.org/namespaces/inkscape"
   role="img"
   viewBox="0 0 24 24"
   version="1.1"
   id="svg6"
   sodipodi:docname="python.svg"
   inkscape:version="1.0.2 (394de47547, 2021-03-26)">
  <metadata
     id="metadata12">
    <rdf:RDF>
      <cc:Work
         rdf:about="">
        <dc:format>image/svg+xml</dc:format>
        <dc:type
           rdf:resource="http://purl.org/dc/dcmitype/StillImage" />
      </cc:Work>
    </rdf:RDF>
  </metadata>
  <defs
     id="defs10" />
  <sodipodi:namedview
     pagecolor="#ffffff"
     bordercolor="#666666"
     borderopacity="1"
     objecttolerance="10"
     gridtolerance="10"
     guidetolerance="10"
     inkscape:pageopacity="0"
     inkscape:pageshadow="2"
     inkscape:window-width="1920"
     inkscape:window-height="1006"
     id="namedview8"
     showgrid="false"
     inkscape:zoom="34.916667"
     inkscape:cx="12"
     inkscape:cy="10.797136"
     inkscape:window-x="0"
     inkscape:window-y="0"
     inkscape:window-maximized="1"
     inkscape:current-layer="svg6"
     inkscape:document-rotation="0" />
  <title
     id="title2">Python icon</title>
  <path
     d="M14.25.18l.9.2.73.26.59.3.45.32.34.34.25.34.16.33.1.3.04.26.02.2-.01.13V8.5l-.05.63-.13.55-.21.46-.26.38-.3.31-.33.25-.35.19-.35.14-.33.1-.3.07-.26.04-.21.02H8.77l-.69.05-.59.14-.5.22-.41.27-.33.32-.27.35-.2.36-.15.37-.1.35-.07.32-.04.27-.02.21v3.06H3.17l-.21-.03-.28-.07-.32-.12-.35-.18-.36-.26-.36-.36-.35-.46-.32-.59-.28-.73-.21-.88-.14-1.05-.05-1.23.06-1.22.16-1.04.24-.87.32-.71.36-.57.4-.44.42-.33.42-.24.4-.16.36-.1.32-.05.24-.01h.16l.06.01h8.16v-.83H6.18l-.01-2.75-.02-.37.05-.34.11-.31.17-.28.25-.26.31-.23.38-.2.44-.18.51-.15.58-.12.64-.1.71-.06.77-.04.84-.02 1.27.05zm-6.3 1.98l-.23.33-.08.41.08.41.23.34.33.22.41.09.41-.09.33-.22.23-.34.08-.41-.08-.41-.23-.33-.33-.22-.41-.09-.41.09zm13.09 3.95l.28.06.32.12.35.18.36.27.36.35.35.47.32.59.28.73.21.88.14 1.04.05 1.23-.06 1.23-.16 1.04-.24.86-.32.71-.36.57-.4.45-.42.33-.42.24-.4.16-.36.09-.32.05-.24.02-.16-.01h-8.22v.82h5.84l.01 2.76.02.36-.05.34-.11.31-.17.29-.25.25-.31.24-.38.2-.44.17-.51.15-.58.13-.64.09-.71.07-.77.04-.84.01-1.27-.04-1.07-.14-.9-.2-.73-.25-.59-.3-.45-.33-.34-.34-.25-.34-.16-.33-.1-.3-.04-.25-.02-.2.01-.13v-5.34l.05-.64.13-.54.21-.46.26-.38.3-.32.33-.24.35-.2.35-.14.33-.1.3-.06.26-.04.21-.02.13-.01h5.84l.69-.05.59-.14.5-.21.41-.28.33-.32.27-.35.2-.36.15-.36.1-.35.07-.32.04-.28.02-.21V6.07h2.09l.14.01zm-6.47 14.25l-.23.33-.08.41.08.41.23.33.33.23.41.08.41-.08.33-.23.23-.33.08-.41-.08-.41-.23-.33-.33-.23-.41-.08-.41.08z"
     id="path4" />
  <path
     style="fill:#0079ab;stroke-width:0.0286396;fill-opacity:1"
     d="M 2.8639618,17.858312 C 1.7861397,17.581154 0.99230231,16.785471 0.49158547,15.480419 0.09942911,14.458316 -0.09605182,12.869526 -0.0159213,11.355609 0.10854738,9.0040041 0.80829866,7.4589311 2.0927825,6.6995232 2.4258862,6.5025869 2.8531366,6.344996 3.220279,6.2836471 3.3135359,6.268064 5.1736811,6.2573914 7.7112172,6.2578803 l 4.3317418,8.334e-4 V 5.8286403 5.3985669 H 9.1217184 6.2004773 L 6.1933174,4.3031015 C 6.1791211,2.1310615 6.1806805,2.0495158 6.2397337,1.875895 6.5336732,1.0116893 7.471969,0.47621725 9.1789976,0.19849907 10.023022,0.06118382 11.46075,-0.0068542 12.529833,0.03992645 c 1.591025,0.06961961 2.714626,0.30395603 3.622912,0.75558843 0.474424,0.23590092 0.93686,0.61290242 1.237387,1.00878102 0.19496,0.2568174 0.363781,0.6903287 0.40151,1.0310263 0.01221,0.1102625 0.01535,1.5536993 0.007,3.2076372 l -0.01522,3.0071599 -0.07772,0.3070594 c -0.08859,0.3500145 -0.243632,0.7051163 -0.423918,0.9709553 -0.423375,0.624285 -1.111102,1.034618 -2.057174,1.227415 -0.273973,0.05583 -0.387162,0.05782 -3.299068,0.05782 -1.81286,0 -3.1759044,0.01189 -3.4179356,0.02982 -1.720019,0.127401 -2.7249365,1.018621 -3.0504323,2.705302 -0.054782,0.283874 -0.058586,0.409489 -0.058586,1.934591 v 1.631004 l -1.1670644,-0.0021 c -1.025998,-0.0019 -1.1912967,-0.0083 -1.3675418,-0.05366 z M 8.9359085,3.9225093 C 9.6370147,3.7599119 9.9694453,2.9243622 9.5698144,2.3292157 9.1522554,1.7073699 8.2540743,1.7011841 7.8213717,2.3171741 7.413734,2.8974819 7.735918,3.753303 8.4247088,3.9198252 c 0.2237914,0.054104 0.2880272,0.054441 0.5111997,0.00268 z"
     id="path837" />
  <path
     style="fill:#ffd42a;fill-opacity:1;stroke-width:0.0286396"
     d="M 11.169451,23.956561 C 9.9289598,23.904711 8.5745526,23.593968 7.7899761,23.181202 7.0591885,22.796735 6.5311291,22.236371 6.3086334,21.609236 6.1893231,21.272943 6.1853737,21.136797 6.2026873,17.957041 l 0.01653,-3.0358 0.087315,-0.315036 c 0.1448401,-0.522589 0.3261392,-0.859544 0.6667618,-1.239217 0.4073821,-0.454086 1.0863818,-0.791998 1.8577145,-0.924511 0.3079852,-0.05291 0.4807294,-0.05584 3.2919354,-0.05584 1.779272,0 3.128042,-0.01194 3.36947,-0.02982 1.077994,-0.07985 1.819783,-0.424159 2.35428,-1.092773 0.305528,-0.38219 0.490489,-0.76822 0.644299,-1.3447075 l 0.09437,-0.353703 0.0095,-1.7417933 0.0095,-1.7417931 1.208584,0.012058 c 0.976645,0.00974 1.238814,0.020571 1.366103,0.056415 1.066563,0.3003443 1.839299,1.0914738 2.333446,2.3889895 0.607051,1.5939754 0.696219,4.3484214 0.199264,6.1553734 -0.210919,0.766911 -0.576664,1.480352 -1.004308,1.959055 -0.534427,0.598235 -1.286185,0.987344 -2.100444,1.087187 -0.157777,0.01935 -1.713389,0.02976 -4.4463,0.02976 h -4.203615 v 0.415275 0.415274 h 2.921241 2.921241 l 0.0072,1.109785 c 0.01398,2.166853 0.0126,2.239096 -0.04624,2.412888 -0.170565,0.503852 -0.576174,0.914133 -1.176483,1.190033 -1.131117,0.519859 -3.010877,0.74289 -5.414512,0.642423 z m 4.384245,-1.837184 c 0.378041,-0.07444 0.715874,-0.427537 0.783269,-0.818661 0.07495,-0.434977 -0.07852,-0.811475 -0.434772,-1.066581 -0.338185,-0.242169 -0.837616,-0.243522 -1.180689,-0.0032 -0.611798,0.428567 -0.614146,1.297957 -0.0047,1.731335 0.246688,0.175414 0.501223,0.223198 0.836866,0.157106 z"
     id="path839" />
  <path
     style="fill:#ffffff;stroke-width:0.0286396"
     d="M 8.4932796,3.9009792 C 7.7886671,3.7592277 7.440053,2.9266254 7.8432287,2.3484491 7.9970552,2.1278534 8.2375895,1.9649563 8.492061,1.9090404 8.6757274,1.8686828 8.7130305,1.8687471 8.8927063,1.9097314 9.2986871,2.002336 9.6153689,2.3182907 9.6833217,2.6985313 9.7860311,3.2732583 9.4476135,3.787188 8.891969,3.9002999 8.7202538,3.9352558 8.6641353,3.9353514 8.4932796,3.9009792 Z"
     id="path833" />
  <path
     style="fill:#ffffff;stroke-width:0.0286396"
     d="m 15.093079,22.092732 c -0.384416,-0.08478 -0.709321,-0.415905 -0.776401,-0.791263 -0.07822,-0.437704 0.0825,-0.816734 0.445927,-1.051634 0.60454,-0.390743 1.396013,-0.05458 1.541543,0.654734 0.02397,0.116845 0.03914,0.226391 0.0337,0.243437 -0.0054,0.01704 -0.0244,0.104851 -0.04213,0.195123 -0.06502,0.330921 -0.446104,0.704989 -0.765114,0.751025 -0.07524,0.01086 -0.162584,0.02422 -0.194088,0.02969 -0.0315,0.0055 -0.14105,-0.0085 -0.243436,-0.03111 z"
     id="path835" />
</svg>
