<?xml version="1.0" encoding="UTF-8" standalone="no"?>
<svg
   xmlns:dc="http://purl.org/dc/elements/1.1/"
   xmlns:cc="http://creativecommons.org/ns#"
   xmlns:rdf="http://www.w3.org/1999/02/22-rdf-syntax-ns#"
   xmlns:svg="http://www.w3.org/2000/svg"
   xmlns="http://www.w3.org/2000/svg"
   xmlns:sodipodi="http://sodipodi.sourceforge.net/DTD/sodipodi-0.dtd"
   xmlns:inkscape="http://www.inkscape.org/namespaces/inkscape"
   role="img"
   viewBox="0 0 24 24"
   version="1.1"
   id="svg6"
   sodipodi:docname="solus.svg"
   inkscape:version="1.0.2 (394de47547, 2021-03-26)">
  <metadata
     id="metadata12">
    <rdf:RDF>
      <cc:Work
         rdf:about="">
        <dc:format>image/svg+xml</dc:format>
        <dc:type
           rdf:resource="http://purl.org/dc/dcmitype/StillImage" />
      </cc:Work>
    </rdf:RDF>
  </metadata>
  <defs
     id="defs10" />
  <sodipodi:namedview
     pagecolor="#ffffff"
     bordercolor="#666666"
     borderopacity="1"
     objecttolerance="10"
     gridtolerance="10"
     guidetolerance="10"
     inkscape:pageopacity="0"
     inkscape:pageshadow="2"
     inkscape:window-width="1769"
     inkscape:window-height="913"
     id="namedview8"
     showgrid="false"
     inkscape:zoom="34.916667"
     inkscape:cx="6.7732697"
     inkscape:cy="10.825776"
     inkscape:window-x="151"
     inkscape:window-y="93"
     inkscape:window-maximized="0"
     inkscape:current-layer="svg6"
     inkscape:document-rotation="0" />
  <title
     id="title2">Solus icon</title>
  <path
     d="M7.453 0c-.18.587-.369 1.167-.565 1.75A11.638 11.638 0 0 0 0 12.364a11.638 11.638 0 0 0 .516 3.403l-.339.598L0 16.73l.279.143a3.448 3.448 0 0 0 .741.222A11.638 11.638 0 0 0 2 18.868c4.034.343 8.55.512 12.446-.056 3.192-.463 5.94-1.423 7.735-3.117.252-.233.474-.474.674-.722.019-.038.037-.053.06-.076.011 0 .026-.037.038-.052.015 0 .03-.038.041-.057.008 0 .015-.038.023-.038.33-.444.587-.892.801-1.31l.181-.365-.365-.365a5.936 5.936 0 0 0-.361-.35A11.638 11.638 0 0 0 11.635.722a11.638 11.638 0 0 0-3.211.463C7.96.508 7.596.041 7.453 0zm.365 1.637C9.06 3.82 10.13 5.06 11.454 7.457c.132 1.524.67 9.45.727 10.181-.392-.037-2.485-.24-5.104-.515-1.43-.147-2.899-.316-4.092-.49l-1.9-.447c2.149-3.787 5.551-9.727 6.737-14.548zm4.543 6.18s4.991 3.927 7.092 8.73c-2.56 1.26-4.916 1.098-6.361 1.09 1.023-2.634 1.023-6.21-.73-9.82zm3.456 2.184a45.14 45.14 0 0 1 2.91.907c1.768.629 3.417 1.49 4.365 2.364a6.956 6.956 0 0 1-2.91 2.91c.151-1.495-.39-2.933-1.456-4.002-.787-.787-1.822-1.453-2.91-2.183zm6.707 6.478c-2.352 1.667-5.126 2.68-7.965 3.112a41.026 41.026 0 0 1-3.715.34h-.323a53.48 53.48 0 0 1-3.727 0 85.763 85.763 0 0 1-4.178-.23h-.003c2.555 3.255 6.993 4.893 11.092 4.102a11.367 11.367 0 0 0 4.498-1.852 11.638 11.638 0 0 0 .007 0c.312-.214.614-.444.903-.685a11.638 11.638 0 0 0 .038-.037 11.555 11.555 0 0 0 3.376-4.762zM2.511 19.584a11.638 11.638 0 0 0 .023.038c-.008 0-.015-.038-.023-.038z"
     id="path4"
     style="fill:#363759;fill-opacity:1" />
  <path
     style="fill:#5997fa;stroke-width:0.0286396;fill-opacity:1"
     d="M 10.610979,23.941654 C 9.4766077,23.830248 8.3960269,23.57029 7.3174225,23.149316 6.8362285,22.961508 5.8429759,22.455234 5.389235,22.166492 4.4260841,21.553584 3.4982723,20.746701 2.8359584,19.946004 L 2.6595171,19.732697 h 0.113053 c 0.062179,0 0.3691577,0.01896 0.6821746,0.04214 2.7959021,0.207022 6.6689353,0.252598 8.5595753,0.100725 2.309876,-0.185549 3.589086,-0.395201 5.155131,-0.844883 1.779894,-0.511089 3.45751,-1.271995 4.890215,-2.218025 0.232339,-0.153416 0.422434,-0.274795 0.422434,-0.26973 0,0.04358 -0.334946,0.771527 -0.524545,1.140003 -1.271931,2.471923 -3.450801,4.445639 -6.034472,5.466289 -0.94532,0.373437 -1.816986,0.59805 -2.920696,0.752611 -0.384838,0.05389 -1.978031,0.08042 -2.391408,0.03983 z"
     id="path831" />
  <path
     style="fill:#ffffff;stroke-width:0.0286396"
     d="M 11.26969,17.53802 C 7.179549,17.124129 5.6266436,16.957978 4.3245824,16.794935 3.1320572,16.645608 3.0281475,16.627424 2.0403727,16.395204 1.5401433,16.277603 1.1253154,16.181384 1.1185328,16.181384 c -0.00678,0 0.1176107,-0.228759 0.2764294,-0.508353 C 4.1815576,10.767336 5.6921293,7.7442634 6.8222847,4.811456 7.0934363,4.1078041 7.5295421,2.7923419 7.6933552,2.183973 7.7622487,1.9281175 7.8250597,1.7190481 7.8329356,1.7193744 c 0.00788,3.263e-4 0.1458401,0.2225504 0.3065871,0.4938314 0.3025457,0.5105843 0.543175,0.885033 1.6604924,2.5839304 0.6193789,0.941774 1.1591019,1.8118461 1.4934439,2.4075384 l 0.145686,0.2595675 0.05831,0.7428192 c 0.03207,0.4085507 0.116184,1.5611965 0.186921,2.5614347 0.245695,3.474193 0.473144,6.739172 0.473144,6.79187 0,0.06654 -0.01258,0.06622 -0.887828,-0.02235 z"
     id="path832" />
  <path
     style="fill:#ffffff;stroke-width:0.0286396"
     d="m 13.295943,17.623055 c -0.09057,-0.0069 -0.164678,-0.01849 -0.164678,-0.02575 0,-0.0073 0.04987,-0.158048 0.110828,-0.335086 0.361654,-1.050389 0.548174,-2.241994 0.547588,-3.498326 -3.23e-4,-0.690183 -0.02716,-1.094135 -0.115823,-1.743678 C 13.501009,10.753994 13.080181,9.3212783 12.542784,8.1694512 12.474804,8.0237471 12.42604,7.9045347 12.43442,7.9045347 c 0.0084,0 0.139491,0.1063246 0.291358,0.2362768 2.388874,2.0441515 4.426519,4.3799495 5.777529,6.6229115 0.261987,0.434953 0.928674,1.701498 0.928674,1.764256 0,0.01077 -0.138544,0.08067 -0.307876,0.155343 -1.109497,0.489252 -2.17678,0.760874 -3.486874,0.887404 -0.443866,0.04287 -2.006959,0.0778 -2.341288,0.05233 z"
     id="path834" />
  <path
     style="fill:#ffffff;stroke-width:0.0286396"
     d="m 20.207254,15.68804 c 6.65e-4,-1.322704 -0.470299,-2.468575 -1.419665,-3.454097 -0.518116,-0.537848 -1.127651,-1.018825 -2.2122,-1.745619 -0.318858,-0.213678 -0.574345,-0.393902 -0.567749,-0.400498 0.02997,-0.02997 1.826952,0.522261 2.649332,0.814161 1.420419,0.504171 2.676698,1.113228 3.610331,1.750325 0.262165,0.178897 0.801909,0.600164 0.801909,0.625885 0,0.02242 -0.347742,0.588839 -0.45332,0.738395 -0.570481,0.80811 -1.413932,1.572572 -2.273719,2.060786 l -0.135154,0.07674 2.29e-4,-0.466083 z"
     id="path836" />
</svg>
