<?xml version="1.0" encoding="UTF-8" standalone="no"?>
<svg
   xmlns:dc="http://purl.org/dc/elements/1.1/"
   xmlns:cc="http://creativecommons.org/ns#"
   xmlns:rdf="http://www.w3.org/1999/02/22-rdf-syntax-ns#"
   xmlns:svg="http://www.w3.org/2000/svg"
   xmlns="http://www.w3.org/2000/svg"
   xmlns:sodipodi="http://sodipodi.sourceforge.net/DTD/sodipodi-0.dtd"
   xmlns:inkscape="http://www.inkscape.org/namespaces/inkscape"
   role="img"
   viewBox="0 0 24 24"
   version="1.1"
   id="svg6"
   sodipodi:docname="ubuntu.svg"
   inkscape:version="1.0.2 (394de47547, 2021-03-26)">
  <metadata
     id="metadata12">
    <rdf:RDF>
      <cc:Work
         rdf:about="">
        <dc:format>image/svg+xml</dc:format>
        <dc:type
           rdf:resource="http://purl.org/dc/dcmitype/StillImage" />
        <dc:title>Ubuntu icon</dc:title>
      </cc:Work>
    </rdf:RDF>
  </metadata>
  <defs
     id="defs10" />
  <sodipodi:namedview
     pagecolor="#ffffff"
     bordercolor="#666666"
     borderopacity="1"
     objecttolerance="10"
     gridtolerance="10"
     guidetolerance="10"
     inkscape:pageopacity="0"
     inkscape:pageshadow="2"
     inkscape:window-width="1560"
     inkscape:window-height="1006"
     id="namedview8"
     showgrid="false"
     inkscape:zoom="34.916667"
     inkscape:cx="12"
     inkscape:cy="12"
     inkscape:window-x="360"
     inkscape:window-y="0"
     inkscape:window-maximized="0"
     inkscape:current-layer="svg6"
     inkscape:document-rotation="0" />
  <title
     id="title2">Ubuntu icon</title>
  <path
     d="M12 0c6.623 0 12 5.377 12 12s-5.377 12-12 12S0 18.623 0 12 5.377 0 12 0zm3.279 17.68c-.766.441-1.029 1.422-.586 2.189.441.765 1.422 1.028 2.188.584.766-.441 1.029-1.422.585-2.189-.441-.765-1.421-1.028-2.187-.584zm-3.279-1c-.705 0-1.373-.157-1.971-.435L8.916 18.24c.93.459 1.978.721 3.084.721.646 0 1.268-.091 1.86-.256.104-.643.485-1.234 1.095-1.587.609-.351 1.313-.386 1.92-.156 1.186-1.163 1.957-2.749 2.07-4.515l-2.285-.033c-.21 2.391-2.215 4.266-4.66 4.266zM7.32 12c0-1.583.787-2.981 1.99-3.83L8.14 6.209c-1.404.93-2.445 2.369-2.881 4.035.506.404.83 1.034.83 1.74 0 .704-.324 1.319-.83 1.739.436 1.665 1.477 3.104 2.881 4.034l1.17-1.965C8.107 14.97 7.32 13.574 7.32 12zm-3.48-1.602c-.885 0-1.602.717-1.602 1.602s.717 1.602 1.602 1.602S5.441 12.885 5.441 12s-.716-1.602-1.601-1.602zM12 7.32c2.445 0 4.45 1.875 4.66 4.265l2.285-.034c-.113-1.765-.885-3.35-2.07-4.516-.609.232-1.313.194-1.92-.154-.609-.352-.99-.945-1.095-1.591-.594-.16-1.214-.25-1.86-.25-1.11 0-2.155.26-3.084.72l1.113 1.995c.6-.279 1.268-.435 1.971-.435zm3.279-1.001c.765.442 1.746.181 2.189-.585.441-.765.181-1.746-.588-2.19-.765-.44-1.746-.179-2.189.589-.441.764-.18 1.744.588 2.186z"
     id="path4"
     style="fill:#ff3f00;fill-opacity:1" />
  <path
     style="fill:#ffffff;stroke-width:0.0286396"
     d="M 3.4413738,13.531291 C 3.1594226,13.457437 2.9449002,13.330484 2.7199991,13.104385 2.4122413,12.794989 2.2625299,12.433568 2.2625299,12 c 0,-0.433568 0.1497114,-0.794989 0.4574692,-1.104385 0.2284448,-0.229661 0.4402442,-0.353453 0.7327162,-0.428254 0.2809559,-0.07186 0.4888135,-0.07191 0.7691815,-2.06e-4 0.3058132,0.07821 0.48366,0.180595 0.7216093,0.41541 0.3255582,0.32127 0.4693818,0.663664 0.4693818,1.117435 0,0.453771 -0.1438236,0.796165 -0.4693818,1.117435 -0.2379493,0.234815 -0.4157961,0.337196 -0.7216093,0.41541 -0.2747575,0.07027 -0.5080908,0.06981 -0.780523,-0.0016 z"
     id="path831" />
  <path
     style="fill:#ffffff;stroke-width:0.0286396"
     d="M 15.694511,6.472062 C 15.11826,6.313953 14.670846,5.8545388 14.536014,5.2824949 14.449662,4.916133 14.48773,4.6059503 14.66412,4.2386636 c 0.404293,-0.841832 1.477274,-1.1478808 2.26106,-0.644927 0.202372,0.1298618 0.467655,0.4252528 0.571112,0.6359292 0.09741,0.1983736 0.173358,0.5096957 0.173358,0.7106684 0,0.3394182 -0.162773,0.758979 -0.403188,1.0392494 -0.149772,0.1746011 -0.403066,0.3467291 -0.649038,0.4410606 -0.244253,0.093672 -0.68036,0.1179683 -0.922913,0.051418 z"
     id="path833" />
  <path
     style="fill:#ffffff;stroke-width:0.0286396"
     d="m 15.816246,20.633075 c -0.1929,-0.03387 -0.455442,-0.140753 -0.614468,-0.250166 -0.83324,-0.573284 -0.945628,-1.719218 -0.237926,-2.425937 0.627971,-0.627098 1.60015,-0.633338 2.220212,-0.01425 0.299058,0.298587 0.485586,0.727639 0.485586,1.116945 0,0.663649 -0.468312,1.304627 -1.104994,1.512404 -0.213185,0.06957 -0.545374,0.09665 -0.74841,0.06101 z"
     id="path835" />
  <path
     style="fill:#ffffff;stroke-width:0.0286396"
     d="M 11.441527,18.925481 C 10.672592,18.858379 9.8254249,18.6379 9.144896,18.327773 L 8.9381203,18.233542 9.3835692,17.43658 C 9.6285661,16.998251 9.87521,16.555395 9.9316667,16.452455 l 0.1026483,-0.187163 0.231053,0.09244 c 0.632338,0.252994 1.145622,0.338764 1.89215,0.316178 0.563393,-0.01704 0.848789,-0.06475 1.327921,-0.221956 1.690533,-0.554682 2.957384,-2.099831 3.168745,-3.864845 l 0.01886,-0.157518 0.620517,0.0073 c 1.347626,0.01583 1.604534,0.02202 1.621582,0.0391 0.02445,0.02448 -0.03216,0.493262 -0.103091,0.853725 -0.127747,0.649214 -0.312168,1.181755 -0.623032,1.79909 -0.294078,0.584004 -0.658218,1.107099 -1.127871,1.620214 l -0.178766,0.195309 -0.213262,-0.0591 c -1.198053,-0.331997 -2.487549,0.412531 -2.773396,1.6013 -0.05616,0.233566 -0.01827,0.212571 -0.592625,0.328395 -0.563005,0.113536 -1.31544,0.158226 -1.861576,0.110566 z"
     id="path837" />
  <path
     style="fill:#ffffff;stroke-width:0.0286396"
     d="M 16.654214,11.412888 C 16.572812,10.730985 16.298416,9.9904932 15.912099,9.4101998 15.21788,8.3674018 14.185946,7.669199 12.93792,7.3978816 12.537378,7.310805 11.52621,7.3030531 11.126492,7.3839948 c -0.270081,0.05469 -0.894597,0.2501329 -1.01582,0.3179015 -0.06882,0.038472 -0.07312,0.035192 -0.1605549,-0.1223521 C 9.9007042,7.4905085 9.652727,7.0460608 9.3990567,6.5918826 L 8.9378378,5.766104 9.1443366,5.6714373 C 9.6899091,5.4213263 10.364897,5.2233577 11.011933,5.1236862 11.269933,5.083943 11.51625,5.0707453 12,5.0707453 c 0.67891,0 1.016686,0.03546 1.571315,0.1649597 l 0.268213,0.062624 0.05137,0.2004773 c 0.204112,0.7965158 0.796811,1.3908972 1.617452,1.6220419 0.311476,0.087731 0.814293,0.08754 1.142734,-4.362e-4 0.170372,-0.045636 0.235869,-0.052638 0.265137,-0.028347 0.07991,0.066322 0.522969,0.591787 0.690574,0.8190218 0.584193,0.7920352 1.009975,1.7667835 1.205257,2.7592082 0.0709,0.360325 0.127541,0.82925 0.103111,0.85368 -0.0097,0.0097 -0.400059,0.0211 -0.867388,0.02526 -0.467328,0.0042 -0.967829,0.01062 -1.112224,0.01436 l -0.262536,0.0068 z"
     id="path839" />
  <path
     style="fill:#ffffff;stroke-width:0.0286396"
     d="M 7.8615752,17.539363 C 6.6809647,16.649222 5.8557022,15.50383 5.3979127,14.120015 L 5.2749706,13.748384 5.4606597,13.551544 C 5.9201004,13.064512 6.126465,12.515003 6.0912382,11.872435 6.0706911,11.497637 6.0190319,11.300931 5.8515621,10.959806 5.7516849,10.756363 5.6675619,10.636935 5.4978414,10.457637 L 5.2751627,10.222393 5.3980592,9.8510532 C 5.7861382,8.678448 6.4554912,7.6485855 7.3474259,6.8517693 7.6560529,6.5760552 8.0719813,6.2577566 8.1236366,6.2577566 c 0.026309,0 1.1412799,1.8487834 1.1412799,1.8924083 0,0.012505 -0.1243581,0.1257282 -0.2763514,0.2516073 -1.1838285,0.9804336 -1.8288515,2.5715418 -1.655598,4.0839408 0.091858,0.801863 0.3779006,1.56377 0.8228882,2.191854 0.2164883,0.305565 0.7103447,0.815431 0.9574101,0.988447 0.1007949,0.07058 0.1581245,0.129731 0.1496532,0.154395 -0.034027,0.09907 -1.1180852,1.892897 -1.1435868,1.892334 -0.015752,-3.47e-4 -0.1317423,-0.07837 -0.2577566,-0.17338 z"
     id="path841" />
</svg>
